<svg xmlns="http://www.w3.org/2000/svg" viewBox="0 0 163.02 163.02"><defs><style>.cls-1{fill:#fff;}</style></defs><title>资源 1</title><g id="图层_2" data-name="图层 2"><g id="图层_1-2" data-name="图层 1"><path class="cls-1" d="M0,0H163V163H0ZM64.33,67.27c.17-.09.28-.16.4-.21Q72.91,63.52,81.09,60a1.5,1.5,0,0,1,1,0c5.24,2.25,10.46,4.55,15.7,6.78.79.33.92.69.71,1.47A32.09,32.09,0,0,1,82.08,88.87a1.14,1.14,0,0,1-1.24,0,37.74,37.74,0,0,1-7.2-5.08c-.2-.18-.59-.36-.78-.28-.88.36-1.71.82-2.63,1.28.22.25.38.46.57.64a36.69,36.69,0,0,0,10.28,7.12,1.23,1.23,0,0,0,.94,0,25.88,25.88,0,0,0,2.39-1.26c12.12-7.1,18.06-17.8,18.42-31.72a1.09,1.09,0,0,0-.44-.8,28.91,28.91,0,0,0-4-2.31,2.3,2.3,0,0,1-1.64-2.74,34.57,34.57,0,0,0,0-3.68H87.45V46.86h-11V50h9.31v3.26h7.92V57.6c1.87,1,3.64,1.88,5.39,2.82.23.12.54.4.54.6,0,1-.11,1.94-.18,3-.43-.17-.73-.27-1-.4q-8-3.47-16-7a1.77,1.77,0,0,0-1.57,0c-4.71,2.07-9.43,4.11-14.14,6.16-.94.41-1.89.8-2.93,1.24-.07-1-.1-1.86-.2-2.73a.92.92,0,0,1,.55-1c1.37-.74,2.74-1.5,4.09-2.28a1.11,1.11,0,0,0,.54-.66c0-1,0-2,0-3a1.64,1.64,0,0,0-.46.12c-2.58,1.45-5.16,2.9-7.72,4.4-.19.11-.29.53-.28.81a39.91,39.91,0,0,0,1.83,11.58,34.78,34.78,0,0,0,6.28,11.52c.16.2.51.48.65.42.91-.4,1.78-.87,2.72-1.35A31.87,31.87,0,0,1,64.33,67.27Zm2.58,1.27a1.5,1.5,0,0,0,0,.24,30.18,30.18,0,0,0,13.9,17.54,1.17,1.17,0,0,0,1.37,0A30.06,30.06,0,0,0,95.76,69.8c.14-.39.25-.79.39-1.23-.85-.36-1.63-.7-2.41-1a4.87,4.87,0,0,0-.54-.18c-.12.33-.23.63-.33.93A26.42,26.42,0,0,1,82.15,82.58a1,1,0,0,1-1.26,0,26.23,26.23,0,0,1-9.56-11.14c-.6-1.32-1.08-2.69-1.64-4.1Zm5-2.14A24.62,24.62,0,0,0,80.5,79.57c1.11.87.78,1,2,0a23.79,23.79,0,0,0,7.73-10.68c.3-.79.54-1.59.83-2.46l-2.8-1.15c-.92,2.06-1.72,4.08-2.7,6a15.84,15.84,0,0,1-4.17,5.06A21.6,21.6,0,0,1,74.9,65.16Zm19.66,38.23-.16.06-.81-1.35c-.61-1-1.19-2-1.83-3a1.91,1.91,0,0,0-2.21-.56c-.71.25-.51.85-.51,1.35,0,1.93,0,3.87,0,5.81,0,.65.12,1.09.9,1.06s1-.18,1-1c0-1.31,0-2.62,0-3.93a24.24,24.24,0,0,1,1.74,2.66c.36.59.71,1.18,1.12,1.74a2,2,0,0,0,2.11.5c.71-.24.52-.85.53-1.35,0-1.93,0-3.87,0-5.81,0-.66-.14-1.08-.9-1.08s-1,.19-1,1C91.52,102,91.53,103.34,91.53,104.63Zm31.44.19c0,.83,0,1.57,0,2.31s.37.92,1,.91,1-.2,1-.92c0-2.18,0-4.35,0-6.53,0-.74-.41-.9-1-.89s-1,.14-1,.91,0,1.56,0,2.37h-3.41c0-.79,0-1.52,0-2.26s-.22-1-1-1-1,.26-1,1c0,2.15,0,4.29,0,6.44,0,.74.38.91,1,.91s1-.19.94-.88,0-1.52,0-2.33Zm-82.86.79c.94,0,1.78,0,2.62,0a2.58,2.58,0,0,0,2.66-2.9,2.61,2.61,0,0,0-2.71-2.94c-1.26-.06-2.54,0-3.81,0-.56,0-.8.27-.79.84,0,2.17,0,4.34,0,6.51,0,.75.34,1,1,1s1.1-.19,1-1A13.54,13.54,0,0,1,40.11,105.61Zm63.88-.88c1.24,0,2.43,0,3.62,0,.63,0,1-.13,1-.88s-.42-.83-1-.82c-1.18,0-2.37,0-3.54,0-.13-1.36.09-1.6,1.33-1.61h2.7c.58,0,.69-.39.7-.86s-.13-.84-.71-.83c-1.27,0-2.55,0-3.82,0a2.21,2.21,0,0,0-2.17,2.29c0,1.2,0,2.39,0,3.58a2.25,2.25,0,0,0,2.28,2.29c1.19.06,2.38,0,3.58.06.53,0,.77-.28.78-.79s-.17-.87-.78-.86c-.84,0-1.69,0-2.54,0C104.26,106.34,104,106,104,104.73Zm-49.06-1.68c-.08-1.42.08-1.61,1.31-1.61H59c.5,0,.71-.3.69-.77s0-.9-.63-.9c-1.35,0-2.71,0-4,.06a2,2,0,0,0-2,2,29.82,29.82,0,0,0,0,4.12A2.15,2.15,0,0,0,55.13,108c1.22.06,2.44,0,3.66,0,.49,0,.8-.21.78-.77s-.18-.85-.78-.84c-.85,0-1.7,0-2.55,0-1.08,0-1.44-.46-1.24-1.62,1.17,0,2.36,0,3.55,0,.65,0,.91-.2.9-.86s-.28-.87-.92-.85C57.35,103.08,56.16,103.05,54.93,103.05Zm12.7,5c1,0,1.27-.3,1-1.1q-1.14-3-2.33-6.08c-.37-1-.74-1.15-1.83-1.17a1.57,1.57,0,0,0-1.66,1.18c-.7,2-1.45,3.92-2.17,5.88-.41,1.09-.07,1.52,1.07,1.23.35-.09.68-.58.87-1s.37-.57.81-.55c.77,0,1.54,0,2.31,0a.73.73,0,0,1,.86.6A1.12,1.12,0,0,0,67.63,108ZM80.7,99.67a1.47,1.47,0,0,0-1.58,1c-.75,2.06-1.53,4.12-2.27,6.19-.34.94,0,1.35,1,1.14a1.45,1.45,0,0,0,.93-.79A1,1,0,0,1,80,106.4a4.21,4.21,0,0,0,.71,0c1,0,2.06-.31,2.32,1.18.08.42,1.17.56,1.65.3s.25-.74.11-1.11c-.71-2-1.44-3.93-2.18-5.89C82.24,99.89,81.89,99.67,80.7,99.67ZM71.94,108v0c.66,0,1.32,0,2,0a2.09,2.09,0,0,0,2.13-2,2.16,2.16,0,0,0-1.75-2.61c-.7-.15-1.42-.16-2.13-.24a.85.85,0,0,1-.86-.94c0-.62.46-.69,1-.69,1,0,1.91,0,2.87,0,.6,0,.76-.37.75-.89s-.22-.79-.77-.78c-1.17,0-2.34,0-3.5,0a2.12,2.12,0,0,0-2.2,2.22,2.23,2.23,0,0,0,2,2.59c.54.09,1.11.09,1.66.16s1,.21,1,.89-.57.74-1.09.74H70.28c-.58,0-1,.18-1,.84s.41.78,1,.76S71.38,108,71.94,108Zm42.15,0v0c.53,0,1.06,0,1.59,0s.88-.23.88-.84-.31-.84-.9-.83c-.79,0-1.59,0-2.38,0-.94,0-1.44-.46-1.5-1.31a16.45,16.45,0,0,1,0-2.22,1.27,1.27,0,0,1,1.45-1.33c.9,0,1.8,0,2.7,0,.54,0,.72-.36.7-.85s-.18-.83-.74-.82c-1.16,0-2.33,0-3.49,0a2.69,2.69,0,0,0-2.54,2.67c0,1,0,2,0,2.94a2.54,2.54,0,0,0,2.4,2.5C112.87,108,113.49,107.93,114.09,107.93ZM68.88,50v3.13h7.37V50Zm29.88,51.39c.76,0,1.37,0,2,0s.83-.22.82-.8-.16-.9-.81-.9c-2,0-3.92,0-5.89,0-.56,0-.83.21-.81.8s.19.91.83.89,1.3,0,2,0v1c0,1.57,0,3.13,0,4.7,0,.61.22.87.83.87.82,0,1-.15,1-1s0-1.44,0-2.15ZM84.06,65.48h-5v4.21h5ZM46.35,103.25v2.38a1.93,1.93,0,0,0,0,.24A1.91,1.91,0,0,0,48.5,108c1,0,2,0,3,0,.55,0,.86-.18.87-.76s-.19-.92-.83-.9-1.43,0-2.14,0c-.93,0-1.11-.18-1.12-1.12,0-1.57,0-3.13,0-4.69,0-.73-.42-.82-1-.82s-1,.13-1,.84C46.38,101.44,46.35,102.34,46.35,103.25Zm15.29,11.1-.17,0-1.1-2.08a1.11,1.11,0,0,0-1.32-.46c-.57.11-.44.58-.43,1,0,.9,0,1.81.06,2.7a.81.81,0,0,0,.46.63c.44.09.55-.25.54-.65,0-.65,0-1.3,0-1.94a3.24,3.24,0,0,1,.7,1,4.63,4.63,0,0,0,.69,1.24,1.73,1.73,0,0,0,1.16.36c.16,0,.42-.48.44-.76.05-1,0-1.9,0-2.86,0-.38-.06-.77-.53-.65a1,1,0,0,0-.49.71A15.62,15.62,0,0,0,61.64,114.35ZM108,114h0v.71c0,1.8-.1,1.48,1.46,1.49,2.22,0,2.72-.52,2.55-2.75A1,1,0,0,0,112,113c-.24-.36-.49-.92-.8-1a21.5,21.5,0,0,0-2.9-.15c-.08.65-.15,1.31-.23,2A.86.86,0,0,0,108,114Zm-32.47.79.33-.24c.74-.52.61-1.27.45-2s-.76-.81-1.38-.81a14.5,14.5,0,0,0-1.75,0c-.2,0-.51.32-.51.5,0,1.11,0,2.23,0,3.34,0,.18.27.34.42.52.19-.17.46-.31.54-.52a2.94,2.94,0,0,0,0-.89c.91-.17,1,.57,1.39,1a1,1,0,0,0,1.46.23Zm20.6-.74c0-1.58-.53-2.24-2-2.28-1.79,0-2.41.48-2.44,2,0,1.76.52,2.42,2,2.45C95.57,116.26,96.14,115.73,96.17,114Zm-40.73-.47c-.18-.63,0-.94.59-.94a10,10,0,0,0,1.34,0c.18,0,.34-.23.51-.35-.17-.16-.33-.44-.51-.45a11.9,11.9,0,0,0-2,0,1,1,0,0,0-1,1,13.54,13.54,0,0,0,.08,2.38A1.11,1.11,0,0,0,55,116a16.18,16.18,0,0,0,2.52.14c.11,0,.22-.29.33-.45-.15-.1-.29-.29-.45-.3-.44,0-.9,0-1.35,0s-.81-.28-.65-.93h2.34v-.88Zm16.31.32a8.3,8.3,0,0,0,0-1.44c0-.24-.32-.44-.49-.65-.18.21-.49.4-.51.63a15.28,15.28,0,0,0,0,2.14c0,.66-.32.84-.88.83s-1.11,0-1.11-.79,0-1.49,0-2.23c0-.21-.3-.39-.46-.59-.17.19-.47.36-.48.56a21.53,21.53,0,0,0,0,2.54A1.24,1.24,0,0,0,69,116.2C71.77,116.36,71.83,115.74,71.75,113.89Zm6.51-.32c-.19-.67,0-.93.57-.92a11.33,11.33,0,0,0,1.43-.05c.17,0,.32-.24.48-.36-.16-.16-.31-.43-.48-.44a13.09,13.09,0,0,0-2,0,1,1,0,0,0-1,1,19.61,19.61,0,0,0,0,2.3,1,1,0,0,0,1,1.07,14.16,14.16,0,0,0,2.06,0c.16,0,.31-.26.46-.41-.15-.13-.29-.36-.46-.38a12.17,12.17,0,0,0-1.35,0c-.56,0-.85-.24-.71-.93.61,0,1.25,0,1.87,0,.19,0,.36-.25.54-.39-.19-.15-.36-.42-.55-.44C79.5,113.53,78.89,113.57,78.26,113.57Zm5.2-1.8h-.64c-1,0-1.42.31-1.44,1.15s.38,1.39,1.35,1.49a2.86,2.86,0,0,1,.79.08c.2.09.33.34.5.52-.18.12-.36.32-.55.35-.47,0-1,0-1.43,0-.19,0-.36.2-.54.31.17.15.33.42.51.44a11.21,11.21,0,0,0,1.74,0c.85,0,1.28-.45,1.29-1.19a1.28,1.28,0,0,0-1.24-1.37,5.47,5.47,0,0,1-1-.13c-.2-.07-.31-.35-.47-.54.18-.12.35-.33.53-.35.53,0,1.07,0,1.59,0,.17,0,.33-.24.49-.37-.17-.15-.32-.38-.51-.42A4.28,4.28,0,0,0,83.46,111.77Zm-31.71,3.35h-.24c-.09-.26-.19-.53-.27-.79a17.47,17.47,0,0,0-.65-2c-.1-.23-.54-.32-.82-.47-.05.24-.2.52-.14.73.28,1,.63,2,.92,3a.92.92,0,0,0,1,.69c.48,0,.89-.09,1.06-.63.34-1.06.69-2.12,1-3.18.05-.16-.07-.37-.11-.56a1.68,1.68,0,0,0-.7.18,1.26,1.26,0,0,0-.29.64C52.28,113.46,52,114.29,51.75,115.12Zm38,1.08a3.15,3.15,0,0,0,.87,0,2.11,2.11,0,0,0,.6-.42,3.2,3.2,0,0,0-.63-.38,1.89,1.89,0,0,0-.63,0c-1.34,0-1.43-.1-1.46-1.44,0-.16,0-.32,0-.48a.69.69,0,0,1,.77-.79,9,9,0,0,0,1.27,0c.22,0,.42-.26.63-.4-.19-.15-.37-.41-.58-.44a5.77,5.77,0,0,0-1.66,0,1.71,1.71,0,0,0-1.1.62,3.62,3.62,0,0,0,0,3.07C88.18,116.35,89.05,116.2,89.78,116.2Zm-24.11-3.53a5.16,5.16,0,0,0,1,0c.19,0,.34-.25.51-.38-.17-.17-.33-.48-.5-.49-1,0-2,0-3,0-.14,0-.41.28-.39.37a.74.74,0,0,0,.41.44,4.84,4.84,0,0,0,1,.09c0,.94,0,1.84,0,2.73,0,.37,0,.71.5.72s.53-.31.52-.69Zm40.25,0a5.22,5.22,0,0,0,1.07,0c.18,0,.33-.26.49-.4-.17-.16-.33-.46-.51-.47-1,0-2.07,0-3.1,0-.15,0-.3.28-.45.42.16.16.3.41.49.45a4.45,4.45,0,0,0,1,0c0,1,0,1.87,0,2.74,0,.33-.09.75.45.75s.52-.41.52-.78Zm-5.24,1.06h0c0,.5,0,1,0,1.5a.87.87,0,0,0,.89.93,14.43,14.43,0,0,0,1.74,0c.15,0,.29-.23.43-.36-.14-.15-.26-.41-.42-.45a3.76,3.76,0,0,0-1,0c-.51,0-.78-.17-.74-.74a16.45,16.45,0,0,0,0-2.22c0-.22-.31-.43-.47-.64-.17.21-.45.41-.49.64A7.59,7.59,0,0,0,100.68,113.74Zm-3.61,3.15c1.08-.26.66-1,.7-1.66l-.86,0Zm17.08-1.16c-.42-.3-.61-.53-.8-.54s-.44.3-.43.44a.78.78,0,0,0,.4.58C113.46,116.26,113.71,116,114.15,115.73Z"/><path d="M64.33,67.27a31.87,31.87,0,0,0,7.38,14.55c-.94.48-1.81,1-2.72,1.35-.14.06-.49-.22-.65-.42a34.78,34.78,0,0,1-6.28-11.52,39.91,39.91,0,0,1-1.83-11.58c0-.28.09-.7.28-.81,2.56-1.5,5.14-3,7.72-4.4a1.64,1.64,0,0,1,.46-.12c0,1,0,2,0,3a1.11,1.11,0,0,1-.54.66c-1.35.78-2.72,1.54-4.09,2.28a.92.92,0,0,0-.55,1c.1.87.13,1.74.2,2.73,1-.44,2-.83,2.93-1.24,4.71-2.05,9.43-4.09,14.14-6.16a1.77,1.77,0,0,1,1.57,0q8,3.49,16,7c.29.13.59.23,1,.4.07-1.05.17-2,.18-3,0-.2-.31-.48-.54-.6-1.75-.94-3.52-1.85-5.39-2.82V53.22H85.72V50H76.41v-3.1h11V50h9.34a34.57,34.57,0,0,1,0,3.68,2.3,2.3,0,0,0,1.64,2.74,28.91,28.91,0,0,1,4,2.31,1.09,1.09,0,0,1,.44.8c-.36,13.92-6.3,24.62-18.42,31.72A25.88,25.88,0,0,1,82,92.5a1.23,1.23,0,0,1-.94,0A36.69,36.69,0,0,1,70.8,85.41c-.19-.18-.35-.39-.57-.64.92-.46,1.75-.92,2.63-1.28.19-.08.58.1.78.28a37.74,37.74,0,0,0,7.2,5.08,1.14,1.14,0,0,0,1.24,0A32.09,32.09,0,0,0,98.52,68.3c.21-.78.08-1.14-.71-1.47-5.24-2.23-10.46-4.53-15.7-6.78a1.5,1.5,0,0,0-1,0q-8.19,3.5-16.36,7.05C64.61,67.11,64.5,67.18,64.33,67.27Z"/><path d="M66.91,68.54l2.78-1.18c.56,1.41,1,2.78,1.64,4.1A26.23,26.23,0,0,0,80.89,82.6a1,1,0,0,0,1.26,0A26.42,26.42,0,0,0,92.87,68.3c.1-.3.21-.6.33-.93a4.87,4.87,0,0,1,.54.18c.78.32,1.56.66,2.41,1-.14.44-.25.84-.39,1.23a30.06,30.06,0,0,1-13.6,16.52,1.17,1.17,0,0,1-1.37,0,30.18,30.18,0,0,1-13.9-17.54A1.5,1.5,0,0,1,66.91,68.54Z"/><path d="M71.87,66.4l3-1.24a21.6,21.6,0,0,0,6.53,11.17,15.84,15.84,0,0,0,4.17-5.06c1-1.93,1.78-4,2.7-6l2.8,1.15c-.29.87-.53,1.67-.83,2.46a23.79,23.79,0,0,1-7.73,10.68c-1.26,1-.93.89-2,0A24.62,24.62,0,0,1,71.87,66.4Z"/><path d="M91.53,104.63c0-1.29,0-2.59,0-3.88,0-.86.21-1,1-1s.91.42.9,1.08c0,1.94,0,3.88,0,5.81,0,.5.18,1.11-.53,1.35a2,2,0,0,1-2.11-.5c-.41-.56-.76-1.15-1.12-1.74A24.24,24.24,0,0,0,87.91,103c0,1.31,0,2.62,0,3.93,0,.87-.19,1-1,1S86,107.61,86,107c0-1.94,0-3.88,0-5.81,0-.5-.2-1.1.51-1.35a1.91,1.91,0,0,1,2.21.56c.64,1,1.22,2,1.83,3l.81,1.35Z"/><path d="M123,104.82h-3.43c0,.81,0,1.57,0,2.33s-.35.88-.94.88-1-.17-1-.91c0-2.15,0-4.29,0-6.44,0-.73.3-1,1-1s1,.34,1,1,0,1.47,0,2.26h3.41c0-.81,0-1.59,0-2.37s.41-.89,1-.91,1,.15,1,.89c0,2.18,0,4.35,0,6.53,0,.72-.38.91-1,.92s-1-.19-1-.91S123,105.65,123,104.82Z"/><path d="M40.11,105.61a13.54,13.54,0,0,0,0,1.45c.09.79-.39,1-1,1s-1-.21-1-1c0-2.17,0-4.34,0-6.51,0-.57.23-.84.79-.84,1.27,0,2.55,0,3.81,0a2.61,2.61,0,0,1,2.71,2.94,2.58,2.58,0,0,1-2.66,2.9C41.89,105.65,41.05,105.61,40.11,105.61Zm0-1.67c.8,0,1.52,0,2.22,0a1.1,1.1,0,0,0,1.08-1.15c0-.66-.23-1.22-.9-1.3a19.22,19.22,0,0,0-2.4,0Z"/><path d="M104,104.73c0,1.27.27,1.61,1.41,1.63.85,0,1.7,0,2.54,0,.61,0,.79.35.78.86s-.25.8-.78.79c-1.2,0-2.39,0-3.58-.06a2.25,2.25,0,0,1-2.28-2.29c0-1.19,0-2.38,0-3.58a2.21,2.21,0,0,1,2.17-2.29c1.27-.07,2.55,0,3.82,0,.58,0,.71.35.71.83s-.12.85-.7.86h-2.7c-1.24,0-1.46.25-1.33,1.61,1.17,0,2.36,0,3.54,0,.61,0,1,0,1,.82s-.36.9-1,.88C106.42,104.71,105.23,104.73,104,104.73Z"/><path d="M54.93,103.05c1.23,0,2.42,0,3.6,0,.64,0,.92.18.92.85s-.25.88-.9.86c-1.19,0-2.38,0-3.55,0-.2,1.16.16,1.61,1.24,1.62.85,0,1.7,0,2.55,0,.6,0,.77.31.78.84s-.29.77-.78.77c-1.22,0-2.44,0-3.66,0A2.15,2.15,0,0,1,53,105.9a29.82,29.82,0,0,1,0-4.12,2,2,0,0,1,2-2c1.34-.1,2.7-.06,4-.06.61,0,.62.47.63.9s-.19.77-.69.77H56.24C55,101.44,54.85,101.63,54.93,103.05Z"/><path d="M67.63,108a1.12,1.12,0,0,1-1.11-1,.73.73,0,0,0-.86-.6c-.77,0-1.54,0-2.31,0-.44,0-.62.16-.81.55s-.52.88-.87,1c-1.14.29-1.48-.14-1.07-1.23.72-2,1.47-3.91,2.17-5.88a1.57,1.57,0,0,1,1.66-1.18c1.09,0,1.46.22,1.83,1.17q1.18,3,2.33,6.08C68.9,107.72,68.64,108.05,67.63,108Zm-1.91-3.23-1.09-2.91H64.4l-1.06,2.9Z"/><path d="M80.7,99.67c1.19,0,1.54.22,1.92,1.22.74,2,1.47,3.93,2.18,5.89.14.37.46.8-.11,1.11s-1.57.12-1.65-.3c-.26-1.49-1.35-1.18-2.32-1.18a4.21,4.21,0,0,1-.71,0,1,1,0,0,0-1.28.82,1.45,1.45,0,0,1-.93.79c-1,.21-1.29-.2-1-1.14.74-2.07,1.52-4.13,2.27-6.19A1.47,1.47,0,0,1,80.7,99.67Zm-1.09,5.09H82l-1.1-2.87h-.18Z"/><path d="M71.94,108c-.56,0-1.12,0-1.67,0s-1-.12-1-.76.4-.85,1-.84H73c.52,0,1.06,0,1.09-.74s-.49-.82-1-.89-1.12-.07-1.66-.16a2.23,2.23,0,0,1-2-2.59,2.12,2.12,0,0,1,2.2-2.22c1.16,0,2.33,0,3.5,0,.55,0,.76.28.77.78s-.15.89-.75.89c-1,0-1.91,0-2.87,0-.49,0-.92.07-1,.69a.85.85,0,0,0,.86.94c.71.08,1.43.09,2.13.24a2.16,2.16,0,0,1,1.75,2.61,2.09,2.09,0,0,1-2.13,2c-.66,0-1.32,0-2,0Z"/><path d="M114.09,107.93c-.6,0-1.22,0-1.82,0a2.54,2.54,0,0,1-2.4-2.5c0-1-.05-2,0-2.94a2.69,2.69,0,0,1,2.54-2.67c1.16-.08,2.33,0,3.49,0,.56,0,.72.34.74.82s-.16.84-.7.85c-.9,0-1.8,0-2.7,0a1.27,1.27,0,0,0-1.45,1.33,16.45,16.45,0,0,0,0,2.22c.06.85.56,1.28,1.5,1.31.79,0,1.59,0,2.38,0,.59,0,.89.21.9.83s-.28.86-.88.84-1.06,0-1.59,0Z"/><path d="M68.88,50h7.37v3.13H68.88Z"/><path d="M98.76,101.43v3.42c0,.71,0,1.43,0,2.15s-.2,1-1,1c-.61,0-.84-.26-.83-.87,0-1.57,0-3.13,0-4.7v-1c-.71,0-1.36,0-2,0s-.82-.33-.83-.89.25-.81.81-.8c2,0,3.93,0,5.89,0,.65,0,.81.34.81.9s-.25.82-.82.8S99.52,101.43,98.76,101.43Z"/><path d="M84.06,65.48v4.21h-5V65.48Z"/><path d="M46.35,103.25c0-.91,0-1.81,0-2.71,0-.71.4-.84,1-.84s1,.09,1,.82c0,1.56,0,3.12,0,4.69,0,.94.19,1.11,1.12,1.12.71,0,1.43,0,2.14,0s.83.33.83.9-.32.77-.87.76c-1,0-2,0-3,0a1.91,1.91,0,0,1-2.14-2.1,1.93,1.93,0,0,1,0-.24Z"/><path d="M61.64,114.35a15.62,15.62,0,0,1,0-1.81,1,1,0,0,1,.49-.71c.47-.12.53.27.53.65,0,1,0,1.91,0,2.86,0,.28-.28.76-.44.76a1.73,1.73,0,0,1-1.16-.36,4.63,4.63,0,0,1-.69-1.24,3.24,3.24,0,0,0-.7-1c0,.64,0,1.29,0,1.94,0,.4-.1.74-.54.65a.81.81,0,0,1-.46-.63c-.07-.89-.06-1.8-.06-2.7,0-.38-.14-.85.43-1a1.11,1.11,0,0,1,1.32.46l1.1,2.08Z"/><path d="M108,114a.86.86,0,0,1,0-.16c.08-.66.15-1.32.23-2a21.5,21.5,0,0,1,2.9.15c.31,0,.56.61.8,1a1,1,0,0,1,.07.46c.17,2.23-.33,2.77-2.55,2.75-1.56,0-1.49.31-1.46-1.49V114Zm1,1.46c.66-.16,1.57-.13,1.73-.46a2.58,2.58,0,0,0,0-2c-.17-.34-1.08-.31-1.72-.46Z"/><path d="M75.57,114.78l1,1.19a1,1,0,0,1-1.46-.23c-.34-.4-.48-1.14-1.39-1a2.94,2.94,0,0,1,0,.89c-.08.21-.35.35-.54.52-.15-.18-.41-.34-.42-.52,0-1.11-.06-2.23,0-3.34,0-.18.31-.48.51-.5a14.5,14.5,0,0,1,1.75,0c.62,0,1.22.13,1.38.81s.29,1.44-.45,2Zm-1.86-.67a12.93,12.93,0,0,0,1.68-.53c.08,0,0-.73-.1-.76a9.67,9.67,0,0,0-1.58-.24Z"/><path d="M96.17,114c0,1.69-.6,2.22-2.36,2.2-1.52,0-2.08-.69-2-2.45,0-1.55.65-2.07,2.44-2C95.64,111.8,96.2,112.46,96.17,114Zm-1-.08c0-1-.32-1.38-1.2-1.39s-1.2.32-1.21,1.36S93,115.39,94,115.4,95.18,115.06,95.18,114Z"/><path d="M55.44,113.57h2.32v.88H55.42c-.16.65.09.92.65.93s.91,0,1.35,0c.16,0,.3.2.45.3-.11.16-.22.45-.33.45A16.18,16.18,0,0,1,55,116a1.11,1.11,0,0,1-.59-.82,13.54,13.54,0,0,1-.08-2.38,1,1,0,0,1,1-1,11.9,11.9,0,0,1,2,0c.18,0,.34.29.51.45-.17.12-.33.33-.51.35a10,10,0,0,1-1.34,0C55.41,112.63,55.26,112.94,55.44,113.57Z"/><path d="M71.75,113.89c.08,1.85,0,2.47-2.71,2.31a1.24,1.24,0,0,1-1.31-1.31,21.53,21.53,0,0,1,0-2.54c0-.2.31-.37.48-.56.16.2.44.38.46.59.07.74,0,1.49,0,2.23s.57.77,1.11.79.91-.17.88-.83a15.28,15.28,0,0,1,0-2.14c0-.23.33-.42.51-.63.17.21.44.41.49.65A8.3,8.3,0,0,1,71.75,113.89Z"/><path d="M78.26,113.57c.63,0,1.24,0,1.84,0,.19,0,.36.29.55.44-.18.14-.35.37-.54.39-.62,0-1.26,0-1.87,0-.14.69.15.93.71.93a12.17,12.17,0,0,1,1.35,0c.17,0,.31.25.46.38-.15.15-.3.4-.46.41a14.16,14.16,0,0,1-2.06,0,1,1,0,0,1-1-1.07,19.61,19.61,0,0,1,0-2.3,1,1,0,0,1,1-1,13.09,13.09,0,0,1,2,0c.17,0,.32.28.48.44-.16.12-.31.34-.48.36a11.33,11.33,0,0,1-1.43.05C78.25,112.64,78.07,112.9,78.26,113.57Z"/><path d="M83.46,111.78a3.76,3.76,0,0,1,1,0c.19,0,.34.27.51.42-.16.13-.32.36-.49.37-.52,0-1.06,0-1.59,0-.18,0-.35.23-.53.35.16.19.27.47.47.54a5.47,5.47,0,0,0,1,.13A1.28,1.28,0,0,1,85,115c0,.74-.44,1.16-1.29,1.19a11.21,11.21,0,0,1-1.74,0c-.18,0-.34-.29-.51-.44.18-.11.35-.29.54-.31.47,0,1,0,1.43,0,.19,0,.37-.23.55-.35-.17-.18-.3-.43-.5-.52a2.86,2.86,0,0,0-.79-.08c-1-.1-1.38-.56-1.35-1.49s.4-1.14,1.44-1.15C83,111.77,83.25,111.77,83.46,111.78Z"/><path d="M51.75,115.12c.27-.83.53-1.66.8-2.48a1.26,1.26,0,0,1,.29-.64,1.68,1.68,0,0,1,.7-.18c0,.19.16.4.11.56-.32,1.06-.67,2.12-1,3.18-.17.54-.58.64-1.06.63a.92.92,0,0,1-1-.69c-.29-1-.64-2-.92-3-.06-.21.09-.49.14-.73.28.15.72.24.82.47a17.47,17.47,0,0,1,.65,2c.08.26.18.53.27.79Z"/><path d="M89.78,116.2c-.73,0-1.6.15-2-.69a3.62,3.62,0,0,1,0-3.07,1.71,1.71,0,0,1,1.1-.62,5.77,5.77,0,0,1,1.66,0c.21,0,.39.29.58.44-.21.14-.41.36-.63.4a9,9,0,0,1-1.27,0,.69.69,0,0,0-.77.79c0,.16,0,.32,0,.48,0,1.34.12,1.43,1.46,1.44a1.89,1.89,0,0,1,.63,0,3.2,3.2,0,0,1,.63.38,2.11,2.11,0,0,1-.6.42A3.15,3.15,0,0,1,89.78,116.2Z"/><path d="M65.67,112.67v2.81c0,.38,0,.71-.52.69s-.5-.35-.5-.72c0-.89,0-1.79,0-2.73a4.84,4.84,0,0,1-1-.09.74.74,0,0,1-.41-.44c0-.09.25-.37.39-.37,1,0,2-.06,3,0,.17,0,.33.32.5.49-.17.13-.32.33-.51.38A5.16,5.16,0,0,1,65.67,112.67Z"/><path d="M105.92,112.68v2.72c0,.37,0,.78-.52.78s-.45-.42-.45-.75c0-.87,0-1.74,0-2.74a4.45,4.45,0,0,1-1,0c-.19,0-.33-.29-.49-.45.15-.14.3-.41.45-.42,1,0,2.07,0,3.1,0,.18,0,.34.31.51.47-.16.14-.31.36-.49.4A5.22,5.22,0,0,1,105.92,112.68Z"/><path d="M100.68,113.74a7.59,7.59,0,0,1,0-1.35c0-.23.32-.43.49-.64.16.21.46.42.47.64a16.45,16.45,0,0,1,0,2.22c0,.57.23.76.74.74a3.76,3.76,0,0,1,1,0c.16,0,.28.3.42.45-.14.13-.28.35-.43.36a14.43,14.43,0,0,1-1.74,0,.87.87,0,0,1-.89-.93c0-.5,0-1,0-1.5Z"/><path d="M97.07,116.89l-.16-1.62.86,0C97.73,115.89,98.15,116.63,97.07,116.89Z"/><path d="M114.15,115.73c-.44.27-.69.53-.83.48a.78.78,0,0,1-.4-.58c0-.14.28-.44.43-.44S113.73,115.43,114.15,115.73Z"/><path class="cls-1" d="M40.14,103.94v-2.49a19.22,19.22,0,0,1,2.4,0c.67.08.93.64.9,1.3a1.1,1.1,0,0,1-1.08,1.15C41.66,104,40.94,103.94,40.14,103.94Z"/><path class="cls-1" d="M65.72,104.79H63.34l1.06-2.9h.23Z"/><path class="cls-1" d="M79.61,104.76l1.08-2.87h.18l1.1,2.87Z"/><path class="cls-1" d="M109.07,115.45v-2.94c.64.15,1.55.12,1.72.46a2.58,2.58,0,0,1,0,2C110.64,115.32,109.73,115.29,109.07,115.45Z"/><path class="cls-1" d="M73.71,114.11v-1.53a9.67,9.67,0,0,1,1.58.24c.11,0,.18.73.1.76A12.93,12.93,0,0,1,73.71,114.11Z"/><path class="cls-1" d="M95.18,114c0,1.1-.31,1.46-1.22,1.44s-1.19-.35-1.19-1.47.3-1.36,1.21-1.36S95.18,112.94,95.18,114Z"/></g></g></svg>